<svg width="49" height="40" viewBox="0 0 49 40" fill="none" xmlns="http://www.w3.org/2000/svg">
<path opacity="0.34" d="M11.9827 14.3672L18.3673 18.0547L6.85629 37.9916L0.47168 34.304L11.9827 14.3672Z" fill="url(#paint0_linear_901_1045)"/>
<path d="M3.68085 39.8187C5.71373 39.8187 7.36171 38.1708 7.36171 36.1379C7.36171 34.105 5.71373 32.457 3.68085 32.457C1.64797 32.457 0 34.105 0 36.1379C0 38.1708 1.64797 39.8187 3.68085 39.8187Z" fill="white"/>
<path opacity="0.34" d="M29.507 34.304L23.1224 37.9916L11.6113 18.0547L17.9993 14.3672L29.507 34.304Z" fill="url(#paint1_linear_901_1045)"/>
<path d="M15.0578 20.0766C17.0907 20.0766 18.7387 18.4286 18.7387 16.3957C18.7387 14.3628 17.0907 12.7148 15.0578 12.7148C13.0249 12.7148 11.377 14.3628 11.377 16.3957C11.377 18.4286 13.0249 20.0766 15.0578 20.0766Z" fill="white"/>
<path opacity="0.34" d="M41.9984 1.84766L48.3864 5.5352L29.4534 38.3283L23.0654 34.6407L41.9984 1.84766Z" fill="url(#paint2_linear_901_1045)"/>
<path d="M45.174 7.36171C47.2069 7.36171 48.8549 5.71373 48.8549 3.68085C48.8549 1.64797 47.2069 0 45.174 0C43.1411 0 41.4932 1.64797 41.4932 3.68085C41.4932 5.71373 43.1411 7.36171 45.174 7.36171Z" fill="white"/>
<path d="M26.4348 39.8187C28.4676 39.8187 30.1156 38.1708 30.1156 36.1379C30.1156 34.105 28.4676 32.457 26.4348 32.457C24.4019 32.457 22.7539 34.105 22.7539 36.1379C22.7539 38.1708 24.4019 39.8187 26.4348 39.8187Z" fill="white"/>
<defs>
<linearGradient id="paint0_linear_901_1045" x1="3.66732" y1="36.1576" x2="15.1779" y2="16.2208" gradientUnits="userSpaceOnUse">
<stop stopColor="white" stopOpacity="0"/>
<stop offset="1" stopColor="white"/>
</linearGradient>
<linearGradient id="paint1_linear_901_1045" x1="26.3121" y1="36.1391" x2="14.8015" y2="16.2023" gradientUnits="userSpaceOnUse">
<stop stopColor="white" stopOpacity="0"/>
<stop offset="1" stopColor="white"/>
</linearGradient>
<linearGradient id="paint2_linear_901_1045" x1="26.2631" y1="36.4895" x2="45.1971" y2="3.69486" gradientUnits="userSpaceOnUse">
<stop stopColor="white"/>
<stop offset="1" stopColor="white" stopOpacity="0"/>
</linearGradient>
</defs>
</svg>
