<svg width="16" height="18" viewBox="0 0 16 18" fill="none" xmlns="http://www.w3.org/2000/svg">
        <path d="M0 17.9615C0 17.8349 0 17.7451 0 17.6548C0 12.041 0 6.42657 0 0.812805C0 0.197923 0.196604 0.000659744 0.814784 0.000659744C5.59595 0 10.3771 0 15.1589 0C15.2401 0 15.3219 0 15.438 0C15.438 0.105559 15.438 0.191986 15.438 0.278412C15.438 5.93374 15.438 11.5891 15.438 17.2437C15.438 17.7564 15.2335 17.9609 14.7189 17.9609C9.91266 17.9609 5.10642 17.9609 0.300843 17.9609C0.210458 17.9615 0.121393 17.9615 0 17.9615ZM1.58471 9.50032C1.69488 9.50032 1.77669 9.50032 1.85784 9.50032C5.69953 9.50032 9.54122 9.50032 13.3836 9.50032C13.4495 9.50032 13.534 9.52209 13.5775 9.49042C13.6798 9.41521 13.8375 9.31625 13.8408 9.22256C13.8632 8.53313 13.8527 7.84172 13.8527 7.12524C13.7319 7.12524 13.6349 7.12524 13.5386 7.12524C9.73783 7.12524 5.93704 7.12524 2.13691 7.1259C2.05444 7.1259 1.97198 7.12722 1.89017 7.13513C1.69554 7.15361 1.588 7.26774 1.58668 7.45973C1.58207 8.12607 1.58471 8.79241 1.58471 9.50032ZM13.854 11.0837C13.7352 11.0837 13.6455 11.0837 13.5558 11.0837C9.74706 11.0837 5.9377 11.0837 2.12899 11.0837C2.0716 11.0837 2.01354 11.0811 1.95614 11.0857C1.68829 11.1048 1.588 11.2051 1.58471 11.4749C1.58009 11.8787 1.58339 12.2831 1.58339 12.6869C1.58339 12.9396 1.58339 13.1916 1.58339 13.4594C1.7094 13.4594 1.79978 13.4594 1.88951 13.4594C5.7147 13.4594 9.5399 13.4594 13.3658 13.4594C13.4317 13.4594 13.4984 13.4627 13.5637 13.4561C13.7471 13.4377 13.852 13.3354 13.8527 13.15C13.8559 12.4744 13.854 11.7995 13.854 11.0837ZM13.8527 3.16677C13.2279 3.16677 12.6354 3.16677 12.0423 3.16677C9.77543 3.16677 7.50855 3.16611 5.24167 3.16743C4.83395 3.16743 4.75082 3.25386 4.75082 3.66158C4.75016 4.15639 4.75082 4.65054 4.75082 5.14535C4.75082 5.27268 4.75082 5.40001 4.75082 5.54185C4.85638 5.54185 4.92235 5.54185 4.98767 5.54185C7.79884 5.54185 10.61 5.54185 13.4212 5.54185C13.4707 5.54185 13.5201 5.54317 13.5696 5.53789C13.7405 5.51942 13.8507 5.42508 13.852 5.25222C13.856 4.56939 13.8527 3.88655 13.8527 3.16677ZM2.78676 3.18327C2.13097 3.17865 1.59922 3.69325 1.58734 4.3431C1.57547 5.0002 2.11316 5.54251 2.77488 5.54119C3.43199 5.54053 3.95517 5.02131 3.95781 4.36685C3.96045 3.71106 3.44255 3.18788 2.78676 3.18327Z" fill="white"/>
        </svg>