<svg width="21" height="15" viewBox="0 0 21 15" fill="none" xmlns="http://www.w3.org/2000/svg">
    <path d="M1 11.3085C1.04405 11.1112 1.0793 10.9112 1.13331 10.717C1.77955 8.39252 4.44266 7.26935 6.56104 8.42585C6.63076 8.46377 6.7001 8.50246 6.76637 8.53923C8.76178 6.48099 12.0838 6.47678 14.0945 8.40363C14.6143 8.05542 15.1878 7.84894 15.8111 7.7616C17.7747 7.48579 19.7605 9.01041 19.9601 10.9782C20.0118 11.487 20.0007 12.003 19.9946 12.5155C19.9904 12.8863 19.6912 13.1924 19.3231 13.2445C19.2376 13.2568 19.1507 13.2587 19.0641 13.2591C18.0126 13.2598 16.9614 13.2598 15.9099 13.2598C15.8363 13.2598 15.7624 13.2598 15.6716 13.2598C15.6674 13.3246 15.6613 13.3778 15.6605 13.4307C15.6505 14.0807 15.2387 14.4887 14.5829 14.4906C13.7543 14.4929 12.9254 14.4914 12.0968 14.4914C10.2351 14.4914 8.37373 14.4914 6.51201 14.4914C5.79643 14.4914 5.4486 14.2045 5.32181 13.4939C5.2586 13.4939 5.19195 13.4939 5.12529 13.4939C4.0864 13.4939 3.04713 13.4816 2.00824 13.4992C1.51791 13.5073 1.17238 13.3403 1 12.8672C1 12.3477 1 11.8279 1 11.3085ZM10.4921 13.872C11.8585 13.872 13.2253 13.8723 14.5917 13.8716C14.9036 13.8712 15.0441 13.7329 15.0495 13.4207C15.053 13.2296 15.0468 13.038 15.0484 12.8469C15.0533 12.2041 15.0706 11.5609 14.897 10.9315C14.2048 8.42278 11.5682 7.0058 9.08586 7.81063C7.31109 8.38639 6.08029 9.9543 5.96728 11.811C5.93587 12.3282 5.95464 12.8488 5.94928 13.3675C5.94545 13.7356 6.07799 13.8712 6.44765 13.8716C7.79606 13.8723 9.14409 13.872 10.4921 13.872ZM14.5155 8.87634C15.4069 9.97652 15.7436 11.2429 15.654 12.622C15.6958 12.6358 15.7069 12.6427 15.7184 12.6427C16.8683 12.6438 18.0183 12.6446 19.1683 12.6454C19.3265 12.6454 19.3882 12.5573 19.3874 12.4098C19.3855 12.0451 19.3989 11.6793 19.3782 11.3157C19.3169 10.2236 18.8055 9.38735 17.8827 8.81313C16.8538 8.17263 15.4299 8.20328 14.5155 8.87634ZM6.36721 9.02956C6.31358 8.99624 6.28293 8.97517 6.25114 8.95755C4.48863 7.97957 2.163 8.98283 1.71902 10.9468C1.59989 11.4747 1.63896 12.039 1.61598 12.5871C1.60564 12.8358 1.65429 12.8737 1.90941 12.8737C2.99159 12.8741 4.07414 12.8741 5.15632 12.8737C5.21493 12.8737 5.27354 12.8683 5.35628 12.8641C5.24596 11.4613 5.5007 10.1707 6.36721 9.02956Z" fill="white" stroke="white" strokeWidth="0.5"/>
    <path d="M10.3915 6.61429C8.8282 6.61199 7.56369 5.3559 7.56445 3.806C7.56484 2.25839 8.83587 0.998852 10.3953 1C11.9556 1.00153 13.2236 2.26107 13.2236 3.80983C13.2232 5.35705 11.9518 6.61659 10.3915 6.61429ZM10.385 6.00023C11.6062 6.00252 12.6103 5.01918 12.6141 3.81672C12.6179 2.60928 11.6231 1.62058 10.4026 1.61828C9.1791 1.61598 8.1789 2.59396 8.172 3.7991C8.16511 4.99888 9.1699 5.99793 10.385 6.00023Z" fill="white" stroke="white" strokeWidth="0.5"/>
    <path d="M18.4436 5.11765C18.4405 6.31552 17.4388 7.30039 16.2306 7.29311C15.0243 7.28584 14.0264 6.28717 14.0352 5.09544C14.044 3.89681 15.0435 2.91729 16.2528 2.92189C17.4633 2.92687 18.4467 3.91213 18.4436 5.11765ZM16.2394 6.67369C17.117 6.67522 17.8318 5.97343 17.8334 5.10884C17.8349 4.24387 17.1228 3.54093 16.244 3.53978C15.3629 3.53864 14.6546 4.23544 14.6539 5.10425C14.6527 5.97343 15.3587 6.67216 16.2394 6.67369Z" fill="white" stroke="white" strokeWidth="0.5"/>
    <path d="M4.7633 3.07422C5.96998 3.07575 6.96788 4.06944 6.96405 5.265C6.96022 6.4621 5.95963 7.44889 4.75219 7.44544C3.54131 7.44238 2.55413 6.4575 2.55567 5.25428C2.55758 4.05412 3.55127 3.07269 4.7633 3.07422ZM4.75258 6.82602C5.63441 6.82832 6.34386 6.13304 6.34577 5.26462C6.34769 4.39352 5.64398 3.6948 4.7633 3.69288C3.88416 3.69096 3.17164 4.38739 3.1659 5.25389C3.16053 6.11504 3.87611 6.8241 4.75258 6.82602Z" fill="white" stroke="white" strokeWidth="0.5"/>
    </svg>