<svg width="18" height="12" viewBox="0 0 18 12" fill="none" xmlns="http://www.w3.org/2000/svg">
                      <path d="M4.12593 1.82563C4.13993 1.60163 4.14892 1.46363 4.15692 1.32563C4.15844 1.02406 4.2748 0.734404 4.4823 0.515571C4.6898 0.296739 4.97287 0.165162 5.27392 0.147621C5.89985 0.115544 6.527 0.115544 7.15292 0.147621C7.44607 0.163042 7.7227 0.288118 7.92795 0.497993C8.13319 0.707868 8.25205 0.987199 8.26092 1.28062C8.27492 1.44762 8.29293 1.61463 8.31293 1.82563L16.7129 1.82563C16.8379 1.82563 16.9639 1.81863 17.0889 1.82563C17.184 1.82089 17.2772 1.8533 17.3489 1.91599C17.4205 1.97869 17.465 2.06675 17.4729 2.16163C17.4969 2.38263 17.3839 2.52863 17.1209 2.57563C16.966 2.59772 16.8094 2.60608 16.6529 2.60062L8.89792 2.60062C8.71392 2.60062 8.52992 2.61061 8.30792 2.61661C8.28892 2.82561 8.27292 2.99264 8.25792 3.15964C8.24431 3.43644 8.12884 3.69842 7.93371 3.89521C7.73859 4.092 7.4776 4.20967 7.20093 4.22562C6.54493 4.25762 5.88493 4.25862 5.22893 4.22562C4.94437 4.20686 4.677 4.08277 4.47899 3.87754C4.28097 3.67231 4.16651 3.40069 4.15793 3.11564C4.14793 2.97664 4.14093 2.83762 4.12993 2.64262C3.95393 2.62762 3.78993 2.60162 3.62993 2.60062C2.67393 2.60062 1.71892 2.60062 0.762922 2.59562C0.607203 2.59749 0.451803 2.58107 0.299925 2.54664C0.213711 2.52897 0.137833 2.47828 0.0884991 2.4054C0.0391655 2.33252 0.0202866 2.24323 0.0359173 2.15662C0.0410538 2.07677 0.0737953 2.00119 0.128523 1.94282C0.18325 1.88444 0.256565 1.84689 0.33592 1.83662C0.45953 1.81675 0.584942 1.8104 0.709929 1.81763C1.66593 1.81763 2.62158 1.81763 3.57692 1.81763L4.12593 1.82563Z" fill="#1180FF" />
                      <path d="M13.3597 9.55173C13.5657 9.56273 13.7337 9.57975 13.9007 9.58075C14.8557 9.58075 15.8117 9.58075 16.7667 9.58075C16.9072 9.57353 17.0481 9.58225 17.1867 9.60675C17.2625 9.62643 17.3294 9.67106 17.3767 9.73349C17.424 9.79592 17.4488 9.87249 17.4472 9.95078C17.4456 10.0291 17.4176 10.1045 17.3678 10.165C17.318 10.2254 17.2492 10.2672 17.1727 10.2838C17.0491 10.3034 16.9238 10.3104 16.7987 10.3048C15.8434 10.3048 14.888 10.3048 13.9327 10.3048H13.3727C13.3527 10.4948 13.3307 10.6428 13.3237 10.7918C13.327 10.9528 13.2972 11.1128 13.2362 11.2619C13.1752 11.411 13.0842 11.5459 12.9689 11.6584C12.8536 11.7709 12.7164 11.8585 12.5659 11.9159C12.4153 11.9732 12.2546 11.999 12.0937 11.9917C11.5297 12.0017 10.9657 12.0037 10.4017 11.9917C10.0928 11.9971 9.79438 11.8796 9.57201 11.6651C9.34964 11.4506 9.22148 11.1567 9.2157 10.8478C9.2027 10.6818 9.17471 10.5177 9.14771 10.3057L0.796709 10.3057C0.624483 10.31 0.45215 10.3037 0.280703 10.2867C0.241081 10.2838 0.202431 10.2731 0.166994 10.2552C0.131557 10.2372 0.100037 10.2124 0.0742664 10.1821C0.0484962 10.1519 0.0289917 10.1168 0.0168781 10.079C0.00476456 10.0412 0.000293732 10.0013 0.00370979 9.96173C-0.00319099 9.9188 -0.00112915 9.8749 0.00976753 9.8328C0.0206642 9.7907 0.0401516 9.75133 0.0670185 9.71714C0.0938854 9.68294 0.127541 9.65468 0.165865 9.63413C0.204189 9.61358 0.246357 9.6012 0.289705 9.59775C0.44541 9.58057 0.602161 9.57489 0.758699 9.58075L8.3237 9.58075C8.4647 9.58075 8.60571 9.58075 8.74671 9.58075C9.16471 9.56875 9.1787 9.55375 9.2117 9.11975C9.20455 8.95039 9.23389 8.78147 9.29772 8.62442C9.36154 8.46738 9.45837 8.32589 9.58165 8.20954C9.70493 8.09318 9.85178 8.00467 10.0122 7.95002C10.1727 7.89536 10.343 7.87582 10.5117 7.89273C11.0284 7.88607 11.5454 7.88607 12.0627 7.89273C12.2315 7.88125 12.4009 7.90602 12.5593 7.96534C12.7178 8.02465 12.8618 8.11715 12.9816 8.23667C13.1014 8.35618 13.1942 8.49993 13.2539 8.65827C13.3136 8.81661 13.3388 8.98587 13.3277 9.15473C13.3297 9.26373 13.3437 9.37173 13.3597 9.55173Z" fill="#1180FF" />
                    </svg>