<svg width="16" height="19" viewBox="0 0 16 19" fill="none" xmlns="http://www.w3.org/2000/svg">
    <path d="M7.19288 18.1754C6.91423 18.1054 6.62801 18.0576 6.35835 17.9621C5.41643 17.6281 4.73044 17.0008 4.30371 16.0972C4.24647 15.9756 4.17882 15.9429 4.04919 15.9434C2.77232 15.9486 1.49497 15.9467 0.218095 15.9467C0.148551 15.9467 0.0790063 15.9467 0 15.9467C0 15.59 0 15.2494 0 14.8875C0.285747 14.8875 0.571495 14.8875 0.877112 14.8875C0.877112 14.7971 0.877112 14.728 0.877112 14.659C0.877112 12.7316 0.852984 10.8037 0.882789 8.87683C0.926313 6.09363 2.22022 4.06738 4.68597 2.7872C4.90501 2.67365 5.13967 2.58708 5.3729 2.50429C5.60566 2.42197 5.84552 2.36047 6.09105 2.28714C5.79632 1.47247 5.96001 0.780813 6.67863 0.272713C7.20377 -0.0986638 7.92949 -0.0887289 8.44469 0.290217C9.1406 0.802576 9.29389 1.48525 9.01003 2.27389C9.36201 2.39311 9.71825 2.48394 10.0504 2.6306C12.4958 3.70878 13.8848 5.57465 14.189 8.23579C14.2145 8.45814 14.2173 8.68428 14.2178 8.90853C14.2202 10.8241 14.2192 12.7396 14.2192 14.6552C14.2192 14.7247 14.2192 14.7938 14.2192 14.8789C14.5178 14.8789 14.7993 14.8789 15.093 14.8789C15.093 15.239 15.093 15.5829 15.093 15.9462C15.0197 15.9462 14.9506 15.9462 14.8816 15.9462C13.5985 15.9462 12.3155 15.9481 11.033 15.9434C10.9095 15.9429 10.8494 15.9812 10.7941 16.0938C10.214 17.2728 9.27496 17.963 7.96923 18.1461C7.93469 18.1508 7.90205 18.1655 7.86846 18.1754C7.64232 18.1754 7.4176 18.1754 7.19288 18.1754ZM12.5525 6.29422C12.5251 6.29186 12.5128 6.2876 12.5024 6.29044C12.4456 6.30605 12.3889 6.32261 12.3326 6.33964C11.0675 6.72899 9.77265 6.9575 8.45178 7.02657C6.49839 7.12876 4.58237 6.90498 2.71318 6.32024C2.58497 6.28003 2.53009 6.30037 2.47285 6.42432C2.11803 7.1931 1.94157 7.99877 1.94157 8.84466C1.94204 10.7957 1.94157 12.7467 1.94204 14.6982C1.94204 14.7555 1.94677 14.8127 1.94914 14.869C5.69035 14.869 9.41689 14.869 13.1538 14.869C13.1538 14.8151 13.1538 14.7744 13.1538 14.7337C13.1538 12.759 13.159 10.7843 13.1491 8.80918C13.1472 8.4449 13.1013 8.07778 13.0412 7.71823C12.957 7.21581 12.7867 6.73893 12.5525 6.29422ZM11.9598 5.34378C10.7808 3.94059 9.31707 3.19689 7.51128 3.20872C5.73482 3.22007 4.29473 3.96235 3.13754 5.34378C6.092 6.1944 9.00435 6.19724 11.9598 5.34378ZM5.45806 15.951C5.73482 16.5064 6.63606 17.2047 7.75066 17.1015C8.55634 17.0268 9.18697 16.6474 9.66763 15.951C8.23889 15.951 6.85746 15.951 5.45806 15.951ZM7.54345 2.13717C7.83014 2.13953 8.07426 1.90062 8.07899 1.61393C8.08372 1.32723 7.84717 1.08123 7.56048 1.07413C7.26716 1.06703 7.01595 1.31257 7.01595 1.60589C7.01642 1.89258 7.25675 2.1348 7.54345 2.13717Z" fill="white"/>
    <path d="M7.00705 10.4402C7.00705 10.8055 7.00705 11.1461 7.00705 11.5004C6.55147 11.5004 6.10439 11.5004 5.63509 11.5004C5.63272 11.8694 5.77276 12.1476 6.04904 12.3643C6.33006 12.5848 6.66312 12.5791 7.00469 12.5677C7.00469 12.9268 7.00469 13.2712 7.00469 13.6152C5.73065 13.7883 4.54366 12.8587 4.55786 11.4356C4.13917 11.3093 3.77584 11.0888 3.49246 10.7454C3.18021 10.3669 3.01842 9.93119 3.00943 9.44201C3.00233 9.07111 3.00801 8.70021 3.00801 8.32031C4.10984 8.32031 5.19559 8.32031 6.29363 8.32031C6.29363 8.6652 6.29363 9.01008 6.29363 9.37483C5.55561 9.37483 4.81995 9.37483 4.08619 9.37483C4.04361 9.94302 4.51339 10.4322 5.09765 10.4383C5.66536 10.4445 6.23308 10.4398 6.80031 10.4398C6.86465 10.4402 6.92899 10.4402 7.00705 10.4402Z" fill="white"/>
    <path d="M8.08691 13.6331C8.08691 13.2703 8.08691 12.9296 8.08691 12.5682C8.21559 12.5682 8.33813 12.5715 8.46018 12.5677C9.02411 12.5507 9.46077 12.0965 9.45699 11.5137C9.0066 11.5137 8.55575 11.5137 8.09259 11.5137C8.09259 11.1494 8.09259 10.8045 8.09259 10.4402C8.2525 10.4402 8.41004 10.4402 8.56805 10.4402C9.04682 10.4402 9.52606 10.4454 10.0048 10.4388C10.5801 10.4308 11.0234 9.97235 11.0172 9.38288C10.283 9.38288 9.54782 9.38288 8.80128 9.38288C8.80128 9.0186 8.80128 8.67371 8.80128 8.32031C9.8927 8.32031 10.978 8.32031 12.0907 8.32031C12.0566 8.93628 12.182 9.55981 11.9469 10.1578C11.7084 10.7652 11.2746 11.1759 10.6605 11.393C10.5744 11.4233 10.5281 11.4508 10.5238 11.5586C10.4789 12.7712 9.58046 13.6327 8.36982 13.6336C8.28183 13.6331 8.19383 13.6331 8.08691 13.6331Z" fill="white"/>
    </svg>