<svg width="17" height="17" viewBox="0 0 17 17" fill="none" xmlns="http://www.w3.org/2000/svg">
    <path d="M0.892447 8.92447H6.24713C6.73797 8.92447 7.13957 8.52287 7.13957 8.03202V0.892447C7.13957 0.401601 6.73797 0 6.24713 0H0.892447C0.401601 0 0 0.401601 0 0.892447V8.03202C0 8.52287 0.401601 8.92447 0.892447 8.92447ZM0.892447 16.064H6.24713C6.73797 16.064 7.13957 15.6624 7.13957 15.1716V11.6018C7.13957 11.111 6.73797 10.7094 6.24713 10.7094H0.892447C0.401601 10.7094 0 11.111 0 11.6018V15.1716C0 15.6624 0.401601 16.064 0.892447 16.064ZM9.81691 16.064H15.1716C15.6624 16.064 16.064 15.6624 16.064 15.1716V8.03202C16.064 7.54117 15.6624 7.13957 15.1716 7.13957H9.81691C9.32607 7.13957 8.92447 7.54117 8.92447 8.03202V15.1716C8.92447 15.6624 9.32607 16.064 9.81691 16.064ZM8.92447 0.892447V4.46223C8.92447 4.95308 9.32607 5.35468 9.81691 5.35468H15.1716C15.6624 5.35468 16.064 4.95308 16.064 4.46223V0.892447C16.064 0.401601 15.6624 0 15.1716 0H9.81691C9.32607 0 8.92447 0.401601 8.92447 0.892447Z" fill="white"/>
    </svg>