<svg width="20" height="19" viewBox="0 0 20 19" fill="none" xmlns="http://www.w3.org/2000/svg">
        <path d="M17.5908 0.000200347C17.5908 0.690196 17.5908 1.37999 17.5908 2.0754C12.9251 2.0754 8.26824 2.0754 3.60677 2.0754C3.60416 2.04394 3.60015 2.0181 3.60015 1.99205C3.59975 1.35455 3.59975 0.717243 3.60015 0.0797382C3.60015 0.053092 3.60436 0.0266462 3.60657 0C8.26804 0.000200347 12.9293 0.000200347 17.5908 0.000200347Z" fill="white"/>
        <path d="M19.6343 14.8677C19.4962 15.0246 19.356 15.1794 19.2205 15.3385C18.2879 16.4334 17.3563 17.5293 16.4243 18.6246C16.4031 18.6494 16.38 18.6729 16.3504 18.7053C15.2641 17.4241 14.1818 16.1475 13.0819 14.8501C13.1416 14.8501 13.1791 14.8501 13.2165 14.8501C15.3458 14.8503 17.4753 14.8505 19.6046 14.8507C19.6144 14.8507 19.6244 14.8487 19.6343 14.8477C19.6343 14.8543 19.6343 14.8611 19.6343 14.8677Z" fill="white"/>
        <path d="M2.04374 0C2.04514 0.610257 2.04675 1.22072 2.04795 1.83097C2.04815 1.91031 2.04795 1.98965 2.04795 2.08361C1.35875 2.08361 0.679377 2.08361 0 2.08361C0.000200347 1.39081 0.000200347 0.697809 0.000200347 0C0.681381 0 1.36256 0 2.04374 0Z" fill="white"/>
        <path d="M0.000244141 11.4599C0.0701653 11.4577 0.139886 11.4537 0.209807 11.4535C0.77699 11.4529 1.34437 11.4533 1.91156 11.4533C1.95142 11.4533 1.99129 11.4533 2.03958 11.4533C2.03958 12.1435 2.03958 12.8282 2.03958 13.5234C1.3594 13.5234 0.679822 13.5234 0.000244141 13.5234C0.000244141 12.8357 0.000244141 12.1477 0.000244141 11.4599Z" fill="white"/>
        <path d="M0.000244141 3.82812C0.676816 3.82812 1.35339 3.82812 2.03918 3.82812C2.03918 4.51211 2.03918 5.18928 2.03918 5.87287C2.01514 5.87467 1.9929 5.87788 1.97046 5.87788C1.33355 5.87808 0.696651 5.87808 0.0597472 5.87788C0.0399129 5.87788 0.0202789 5.87367 0.000444488 5.87147C0.000244141 5.19049 0.000244141 4.50931 0.000244141 3.82812Z" fill="white"/>
        <path d="M0.000200347 7.65234C0.679577 7.65234 1.35895 7.65234 2.04274 7.65234C2.04274 8.33853 2.04274 9.0137 2.04274 9.69528C2.0191 9.69729 2.00007 9.70049 1.98083 9.70049C1.33712 9.70069 0.693401 9.70069 0.0496861 9.70049C0.0330573 9.70049 0.0166288 9.69749 0 9.69588C0.000200347 9.0147 0.000200347 8.33352 0.000200347 7.65234Z" fill="white"/>
        <path d="M3.60547 13.5197C3.60547 12.8327 3.60547 12.1503 3.60547 11.4609C8.26735 11.4609 12.925 11.4609 17.5879 11.4609C17.5879 12.1483 17.5879 12.8309 17.5879 13.5197C12.9268 13.5197 8.26895 13.5197 3.60547 13.5197Z" fill="white"/>
        <path d="M3.60522 5.86946C3.60522 5.19048 3.60522 4.51752 3.60522 3.83594C8.2637 3.83594 12.9214 3.83594 17.5852 3.83594C17.5852 4.51151 17.5852 5.18708 17.5852 5.86946C12.9282 5.86946 8.27291 5.86946 3.60522 5.86946Z" fill="white"/>
        <path d="M3.60681 7.65625C8.26328 7.65625 12.9099 7.65625 17.5632 7.65625C17.5632 8.33583 17.5632 9.0116 17.5632 9.69418C12.9117 9.69418 8.26288 9.69418 3.60681 9.69418C3.60681 9.01601 3.60681 8.34024 3.60681 7.65625Z" fill="white"/>
        </svg>