<svg width="19" height="17" viewBox="0 0 19 17" fill="none" xmlns="http://www.w3.org/2000/svg">
        <path d="M18.9995 3.56273C12.6665 3.56273 6.33302 3.56273 0 3.56273C0 2.70924 0 1.85574 0 1.00225C0.305681 0.196065 0.593272 0.000318145 1.47089 0.000318145C3.60323 0.000318145 5.73558 0.000318145 7.86839 0.000318145C11.1381 0.000318145 14.4078 -0.00200113 17.6775 0.00588442C17.8993 0.00634827 18.1349 0.0531977 18.3399 0.137619C18.7157 0.292547 18.8952 0.625596 19 1.00225C18.9995 1.85574 18.9995 2.70924 18.9995 3.56273Z" fill="white"/>
        <path d="M1.18746 4.75781C6.73657 4.75781 12.2629 4.75781 17.8121 4.75781C17.8121 4.83017 17.8121 4.89604 17.8121 4.96191C17.8121 8.413 17.8125 11.8641 17.8121 15.3152C17.8121 16.1413 17.325 16.6256 16.4947 16.6256C11.8316 16.626 7.16796 16.626 2.50481 16.6256C1.67451 16.6256 1.18793 16.1413 1.18746 15.3152C1.187 11.8641 1.18746 8.413 1.18746 4.96191C1.18746 4.90022 1.18746 4.83899 1.18746 4.75781ZM9.49141 9.50028C10.0847 9.50028 10.678 9.50862 11.2712 9.49796C11.9512 9.4859 12.4675 8.96591 12.4666 8.31188C12.4657 7.66526 11.9568 7.13693 11.2875 7.12997C10.0949 7.11745 8.90185 7.12116 7.70928 7.12951C7.27835 7.13276 6.93371 7.32618 6.7092 7.69912C6.22772 8.50113 6.78017 9.47755 7.73015 9.49749C8.31739 9.51002 8.90463 9.50028 9.49141 9.50028Z" fill="white"/>
        </svg>