<svg width="17" height="18" viewBox="0 0 17 18" fill="none" xmlns="http://www.w3.org/2000/svg">
        <path d="M14.706 9.40639C14.7417 9.13866 14.7596 8.862 14.7596 8.56749C14.7596 8.28191 14.7417 7.99633 14.6971 7.72859L16.5088 6.31852C16.5868 6.25418 16.6402 6.16475 16.6597 6.06549C16.6792 5.96622 16.6638 5.86326 16.6159 5.77413L14.9024 2.81121C14.8519 2.72158 14.7714 2.65269 14.675 2.61675C14.5786 2.58082 14.4727 2.58015 14.3758 2.61487L12.2429 3.47162C11.7967 3.13249 11.3237 2.84691 10.7971 2.63272L10.4758 0.365906C10.46 0.263747 10.4081 0.170645 10.3295 0.103505C10.2509 0.0363655 10.1508 -0.000358322 10.0475 2.63575e-06H6.62047C6.40629 2.63575e-06 6.23672 0.151718 6.20102 0.365906L5.87974 2.63272C5.3532 2.84691 4.87128 3.14141 4.43398 3.47162L2.30103 2.61487C2.1047 2.54348 1.88158 2.61487 1.77449 2.81121L0.069917 5.77413C-0.0371766 5.96155 -0.00147885 6.19358 0.17701 6.31852L1.98868 7.72859C1.94405 7.99633 1.90836 8.29083 1.90836 8.56749C1.90836 8.84415 1.92621 9.13866 1.97083 9.40639L0.159162 10.8165C0.0810939 10.8808 0.0277521 10.9702 0.00822433 11.0695C-0.0113034 11.1688 0.00419118 11.2717 0.0520681 11.3608L1.76557 14.3238C1.87266 14.5201 2.09577 14.5826 2.29211 14.5201L4.42506 13.6634C4.87128 14.0025 5.34428 14.2881 5.87082 14.5023L6.1921 16.7691C6.23672 16.9833 6.40629 17.135 6.62047 17.135H10.0475C10.2617 17.135 10.4401 16.9833 10.4669 16.7691L10.7882 14.5023C11.3147 14.2881 11.7967 14.0025 12.234 13.6634L14.3669 14.5201C14.5632 14.5915 14.7864 14.5201 14.8935 14.3238L16.607 11.3608C16.714 11.1645 16.6694 10.9414 16.4999 10.8165L14.706 9.40639ZM8.33397 11.7803C6.56693 11.7803 5.12116 10.3345 5.12116 8.56749C5.12116 6.80045 6.56693 5.35468 8.33397 5.35468C10.101 5.35468 11.5468 6.80045 11.5468 8.56749C11.5468 10.3345 10.101 11.7803 8.33397 11.7803Z" fill="#6C757D"/>
        </svg>