<svg width="21" height="22" viewBox="0 0 21 22" fill="none" xmlns="http://www.w3.org/2000/svg">
        <path d="M12.8967 12.3489C12.5354 12.0402 12.1446 11.7889 11.7309 11.5737C7.78372 9.51277 2.88431 11.8584 2.0476 16.2155C1.97105 16.6178 1.94822 17.0308 1.91867 17.4411C1.89718 17.7592 1.72796 17.9637 1.45129 17.9597C1.17463 17.9557 0.997344 17.7472 1.00003 17.4278C1.02823 14.2334 3.08846 11.3813 6.12507 10.3294C6.1855 10.308 6.2446 10.2853 6.32518 10.2559C5.09898 9.56489 4.26899 8.57719 3.88622 7.24332C3.59612 6.2369 3.63239 5.23316 3.99232 4.24947C4.72696 2.24599 6.64079 0.946871 8.75877 1.00167C10.8727 1.05647 12.7248 2.45449 13.3493 4.47C14.0181 6.62985 13.1116 9.11181 10.9506 10.2586C11.0352 10.2893 11.1091 10.316 11.183 10.3414C12.119 10.6756 12.9598 11.1701 13.6998 11.8303C13.7817 11.9025 13.8475 11.9185 13.9536 11.8865C16.6088 11.0712 19.35 12.6683 19.9423 15.3708C20.513 17.9771 18.7013 20.5727 16.0448 20.9509C13.3963 21.3291 10.964 19.4807 10.6995 16.837C10.5155 14.9966 11.238 13.5331 12.7503 12.4585C12.7892 12.4304 12.8309 12.405 12.8712 12.3783C12.8752 12.3756 12.8779 12.3703 12.8967 12.3489ZM8.64058 1.9172C6.43262 1.91453 4.62489 3.69614 4.61952 5.88005C4.61415 8.11876 6.40039 9.90037 8.65938 9.90972C10.8297 9.91774 12.6415 8.10806 12.6496 5.92549C12.6576 3.7202 10.8566 1.91987 8.64058 1.9172ZM15.3437 20.0888C17.4227 20.0968 19.1217 18.4181 19.1297 16.3452C19.1391 14.2896 17.4482 12.5948 15.3773 12.5815C13.3036 12.5681 11.5926 14.2535 11.5845 16.3198C11.5751 18.3901 13.262 20.0808 15.3437 20.0888Z" fill="white" stroke="white" strokeWidth="0.5"/>
        <path d="M15.3474 16.7906C14.9123 16.7906 14.4771 16.792 14.0433 16.7906C13.7411 16.7893 13.5451 16.6129 13.5437 16.3442C13.5424 16.0649 13.7358 15.8818 14.0447 15.8804C14.9257 15.8778 15.8054 15.8791 16.6864 15.8804C16.9107 15.8804 17.0732 15.9887 17.1417 16.1718C17.2089 16.3469 17.1726 16.5621 17.0208 16.6663C16.9228 16.7345 16.7885 16.7799 16.6676 16.784C16.2271 16.8 15.7866 16.7906 15.3474 16.7906Z" fill="white" stroke="white" strokeWidth="0.5"/>
        </svg>